<?xml version="1.0" encoding="iso-8859-1"?>
<!-- Generator: Adobe Illustrator 18.1.1, SVG Export Plug-In . SVG Version: 6.00 Build 0)  -->
<svg version="1.1" id="Capa_1" xmlns="http://www.w3.org/2000/svg" xmlns:xlink="http://www.w3.org/1999/xlink" x="0px" y="0px"
	 viewBox="0 0 23.197 23.197" style="enable-background:new 0 0 23.197 23.197;" xml:space="preserve">
<g>
	<path style="fill:#090609;" d="M17.604,13.732L7.471,3.6l0.724-0.723l10.131,10.132L17.604,13.732z M4.714,6.361L14.842,16.49
		l1.832-1.832L6.545,4.529L4.714,6.361z M3.788,7.286l-0.91,0.909l10.127,10.132l0.909-0.909L3.788,7.286z M19.024,13.706
		l-5.318,5.32l5.174,2.26l2.407-2.405L19.024,13.706z M23.164,22.646l-1.207-2.761c-0.054-0.119-0.16-0.205-0.288-0.229
		c-0.129-0.023-0.258,0.018-0.352,0.108l-1.555,1.556c-0.092,0.092-0.133,0.223-0.107,0.352c0.023,0.127,0.109,0.234,0.229,0.287
		l2.762,1.205c0.147,0.065,0.32,0.033,0.437-0.08C23.194,22.967,23.229,22.794,23.164,22.646z M7.332,2.013L5.433,0.116
		c-0.154-0.154-0.403-0.154-0.556,0L0.115,4.877c-0.154,0.154-0.154,0.403,0,0.557L2.012,7.33c0.154,0.154,0.403,0.154,0.557,0
		l4.762-4.761C7.484,2.415,7.484,2.166,7.332,2.013z"/>
</g>
<g>
</g>
<g>
</g>
<g>
</g>
<g>
</g>
<g>
</g>
<g>
</g>
<g>
</g>
<g>
</g>
<g>
</g>
<g>
</g>
<g>
</g>
<g>
</g>
<g>
</g>
<g>
</g>
<g>
</g>
</svg>
